<svg width="24" height="32" viewBox="0 0 24 32" fill="none" xmlns="http://www.w3.org/2000/svg">
<path d="M22.75 14.5H1C0.44775 14.5 0 14.0523 0 13.5C0 12.9477 0.44775 12.5 1 12.5H22.75C23.3022 12.5 23.75 12.9477 23.75 13.5C23.75 14.0523 23.3022 14.5 22.75 14.5Z" fill="#858EFF"/>
<path d="M22.5 14.5H1.25L3.50475 30.2829C3.6455 31.2681 4.48925 32 5.48462 32H18.2655C19.2607 32 20.1046 31.2681 20.2454 30.2829L22.5 14.5Z" fill="#6770E6"/>
<path d="M18.3678 31.2498H5.38179C4.47804 31.2498 3.69879 30.6645 3.44092 29.8369L3.50454 30.2825C3.64529 31.2679 4.48904 31.9998 5.48442 31.9998H18.2653C19.2605 31.9998 20.1044 31.2679 20.2452 30.2827L20.3088 29.837C20.0509 30.6645 19.2717 31.2498 18.3678 31.2498Z" fill="#5861C7"/>
<path d="M6.2081 17H6.09185C5.57422 17 5.16972 17.447 5.22122 17.9621L6.29622 28.7121C6.34097 29.1594 6.71735 29.5 7.16685 29.5H7.2831C7.80072 29.5 8.20522 29.053 8.15372 28.5379L7.07872 17.7879C7.0341 17.3406 6.6576 17 6.2081 17Z" fill="#5861C7"/>
<path d="M16.5206 29.5H16.4043C15.8867 29.5 15.4822 29.053 15.5337 28.5379L16.6087 17.7879C16.6535 17.3406 17.0298 17 17.4793 17H17.5956C18.1132 17 18.5177 17.447 18.4662 17.9621L17.3912 28.7121C17.3466 29.1594 16.9701 29.5 16.5206 29.5Z" fill="#5861C7"/>
<path d="M11.9375 17H11.8125C11.3293 17 10.9375 17.3918 10.9375 17.875V28.625C10.9375 29.1082 11.3293 29.5 11.8125 29.5H11.9375C12.4208 29.5 12.8125 29.1082 12.8125 28.625V17.875C12.8125 17.3918 12.4208 17 11.9375 17Z" fill="#5861C7"/>
<path d="M14.4204 12.5V1.51513C14.4204 0.678375 13.742 0 12.9052 0H3.43554C2.59866 0 1.92041 0.678375 1.92041 1.51513V12.5H14.4204Z" fill="#69EBFC"/>
<path d="M5.05839 10.1753L7.18589 12.5H8.52301L5.78426 9.50737C5.37239 9.05725 5.37239 8.36712 5.78426 7.917L13.0291 0H11.6338L5.07114 7.1715L4.38776 7.92163C4.02201 8.355 4.01789 8.98675 4.37564 9.4245L5.05839 10.1753Z" fill="#5FD4E3"/>
<path d="M12.9052 0H3.43554C2.59866 0 1.92041 0.678375 1.92041 1.51513V2.26513C1.92041 1.42838 2.59866 0.75 3.43554 0.75H12.9053C13.742 0.75 14.4204 1.42838 14.4204 2.26513V1.51513C14.4204 0.678375 13.742 0 12.9052 0Z" fill="#A1F1FC"/>
<path d="M12.3428 0.75L13.0236 0.006C12.9844 0.002875 12.945 0 12.905 0H11.6336L10.9473 0.75H12.3428Z" fill="#69EBFC"/>
<path d="M21.9204 12.5V5.26512C21.9204 4.42837 21.242 3.75 20.4053 3.75H10.9355C10.0988 3.75 9.42041 4.42837 9.42041 5.26512V12.5H21.9204Z" fill="#D476E2"/>
<path d="M20.4053 3.75H10.9355C10.0988 3.75 9.42041 4.42837 9.42041 5.26512V6.01512C9.42041 5.17837 10.0988 4.5 10.9355 4.5H20.4053C21.242 4.5 21.9204 5.17837 21.9204 6.01512V5.26512C21.9205 4.42837 21.2422 3.75 20.4053 3.75Z" fill="#EA82FA"/>
<path d="M12.9773 12.5C12.9678 12.2024 13.0694 11.902 13.2845 11.6669L20.5294 3.75H19.134L12.5714 10.9215L11.888 11.6716C11.6872 11.9096 11.596 12.2074 11.6134 12.5H12.9773Z" fill="#B665C2"/>
<path d="M19.8431 4.5L20.524 3.756C20.4848 3.753 20.4455 3.75 20.4055 3.75H19.1341L18.4478 4.5H19.8431Z" fill="#D476E2"/>
</svg>
