<svg width="30" height="28" viewBox="0 0 30 28" fill="none" xmlns="http://www.w3.org/2000/svg">
<path d="M29 0H1C0.447715 0 0 0.447715 0 1V25C0 25.5523 0.447715 26 1 26H29C29.5523 26 30 25.5523 30 25V1C30 0.447715 29.5523 0 29 0Z" fill="#FFE082"/>
<path d="M29 0H1C0.734784 0 0.48043 0.105357 0.292893 0.292893C0.105357 0.48043 0 0.734784 0 1V6H30V1C30 0.734784 29.8946 0.48043 29.7071 0.292893C29.5196 0.105357 29.2652 0 29 0Z" fill="#FFB74D"/>
<path d="M15 28C19.4183 28 23 24.4183 23 20C23 15.5817 19.4183 12 15 12C10.5817 12 7 15.5817 7 20C7 24.4183 10.5817 28 15 28Z" fill="#039BE5"/>
<path d="M23.71 12.29L21.71 10.29C21.6131 10.1932 21.4973 10.1173 21.3699 10.0671C21.2424 10.0169 21.106 9.99346 20.9692 9.99814C20.8323 10.0028 20.6978 10.0356 20.5741 10.0944C20.4504 10.1532 20.3401 10.2368 20.25 10.34L13.25 18.34C13.0892 18.5223 13.0003 18.7569 13 19V21C13 21.2652 13.1054 21.5195 13.2929 21.7071C13.4804 21.8946 13.7348 22 14 22H16C16.142 21.9998 16.2823 21.9694 16.4116 21.9108C16.5409 21.8521 16.6563 21.7666 16.75 21.66L23.75 13.66C23.9191 13.4695 24.009 13.2216 24.0016 12.967C23.9942 12.7124 23.8899 12.4703 23.71 12.29Z" fill="#FFB74D"/>
</svg>
